# Blender 4.3.2
# www.blender.org
mtllib HangingLantern.mtl
o LanternCage
v 0.075000 0.000000 -0.075000
v 0.125000 0.295000 -0.125000
v 0.125000 0.320000 -0.125000
v 0.062500 0.332500 -0.062500
v 0.050000 0.370000 -0.050000
v 0.075000 0.000000 0.000000
v 0.125000 0.295000 0.000000
v 0.125000 0.320000 0.000000
v 0.062500 0.332500 0.000000
v 0.050000 0.370000 0.000000
v 0.000000 0.000000 -0.075000
v 0.000000 0.295000 -0.125000
v 0.000000 0.320000 -0.125000
v 0.000000 0.332500 -0.062500
v 0.000000 0.370000 -0.050000
v 0.000000 0.370000 0.000000
v 0.075000 0.000000 -0.050000
v 0.125000 0.295000 -0.100000
v 0.125000 0.320000 -0.100000
v 0.062500 0.332500 -0.050000
v 0.050000 0.370000 -0.040000
v 0.000000 0.370000 -0.040000
v 0.000000 0.000000 -0.050000
v 0.100000 0.295000 -0.125000
v 0.100000 0.320000 -0.125000
v 0.050000 0.332500 -0.062500
v 0.040000 0.370000 -0.050000
v 0.050000 0.000000 0.000000
v 0.050000 0.000000 -0.075000
v 0.040000 0.370000 0.000000
v 0.050000 0.000000 -0.050000
v 0.040000 0.370000 -0.040000
v 0.100000 0.295000 0.000000
v 0.100000 0.295000 -0.100000
v 0.000000 0.295000 -0.100000
v 0.080278 0.025000 -0.080556
v 0.080278 0.025000 -0.055556
v 0.055278 0.025000 -0.080556
v 0.000000 0.025000 -0.055556
v 0.055278 0.025000 0.000000
v 0.080278 0.025000 0.000000
v 0.000000 0.025000 -0.080556
v 0.055278 0.025000 -0.055556
v 0.100000 0.307500 -0.100000
v 0.100000 0.307500 0.000000
v 0.000000 0.307500 0.000000
v 0.000000 0.307500 -0.100000
v -0.075000 0.000000 -0.075000
v -0.125000 0.295000 -0.125000
v -0.125000 0.320000 -0.125000
v -0.062500 0.332500 -0.062500
v -0.050000 0.370000 -0.050000
v -0.075000 0.000000 0.000000
v -0.125000 0.295000 0.000000
v -0.125000 0.320000 0.000000
v -0.062500 0.332500 0.000000
v -0.050000 0.370000 0.000000
v -0.075000 0.000000 -0.050000
v -0.125000 0.295000 -0.100000
v -0.125000 0.320000 -0.100000
v -0.062500 0.332500 -0.050000
v -0.050000 0.370000 -0.040000
v -0.100000 0.295000 -0.125000
v -0.100000 0.320000 -0.125000
v -0.050000 0.332500 -0.062500
v -0.040000 0.370000 -0.050000
v -0.050000 0.000000 0.000000
v -0.050000 0.000000 -0.075000
v -0.040000 0.370000 0.000000
v -0.050000 0.000000 -0.050000
v -0.040000 0.370000 -0.040000
v -0.100000 0.295000 0.000000
v -0.100000 0.295000 -0.100000
v -0.080278 0.025000 -0.080556
v -0.080278 0.025000 -0.055556
v -0.055278 0.025000 -0.080556
v -0.055278 0.025000 0.000000
v -0.080278 0.025000 0.000000
v -0.055278 0.025000 -0.055556
v -0.100000 0.307500 -0.100000
v -0.100000 0.307500 0.000000
v 0.075000 0.000000 0.075000
v 0.125000 0.295000 0.125000
v 0.125000 0.320000 0.125000
v 0.062500 0.332500 0.062500
v 0.050000 0.370000 0.050000
v 0.000000 0.000000 0.075000
v 0.000000 0.295000 0.125000
v 0.000000 0.320000 0.125000
v 0.000000 0.332500 0.062500
v 0.000000 0.370000 0.050000
v 0.075000 0.000000 0.050000
v 0.125000 0.295000 0.100000
v 0.125000 0.320000 0.100000
v 0.062500 0.332500 0.050000
v 0.050000 0.370000 0.040000
v 0.000000 0.370000 0.040000
v 0.000000 0.000000 0.050000
v 0.100000 0.295000 0.125000
v 0.100000 0.320000 0.125000
v 0.050000 0.332500 0.062500
v 0.040000 0.370000 0.050000
v 0.050000 0.000000 0.075000
v 0.050000 0.000000 0.050000
v 0.040000 0.370000 0.040000
v 0.100000 0.295000 0.100000
v 0.000000 0.295000 0.100000
v 0.080278 0.025000 0.080556
v 0.080278 0.025000 0.055556
v 0.055278 0.025000 0.080556
v 0.000000 0.025000 0.055556
v 0.000000 0.025000 0.080556
v 0.055278 0.025000 0.055556
v 0.100000 0.307500 0.100000
v 0.000000 0.307500 0.100000
v -0.075000 0.000000 0.075000
v -0.125000 0.295000 0.125000
v -0.125000 0.320000 0.125000
v -0.062500 0.332500 0.062500
v -0.050000 0.370000 0.050000
v -0.075000 0.000000 0.050000
v -0.125000 0.295000 0.100000
v -0.125000 0.320000 0.100000
v -0.062500 0.332500 0.050000
v -0.050000 0.370000 0.040000
v -0.100000 0.295000 0.125000
v -0.100000 0.320000 0.125000
v -0.050000 0.332500 0.062500
v -0.040000 0.370000 0.050000
v -0.050000 0.000000 0.075000
v -0.050000 0.000000 0.050000
v -0.040000 0.370000 0.040000
v -0.100000 0.295000 0.100000
v -0.080278 0.025000 0.080556
v -0.080278 0.025000 0.055556
v -0.055278 0.025000 0.080556
v -0.055278 0.025000 0.055556
v -0.100000 0.307500 0.100000
vn -0.0000 -0.1624 -0.9867
vn 0.1961 0.9806 -0.0000
vn 1.0000 -0.0000 -0.0000
vn -0.0000 1.0000 -0.0000
vn 0.9487 0.3162 -0.0000
vn -0.0000 0.9806 -0.1961
vn -0.0000 0.3162 -0.9487
vn -0.0000 -0.0000 -1.0000
vn -0.0000 -1.0000 -0.0000
vn 0.9866 -0.1634 -0.0000
vn 0.9784 -0.2066 -0.0000
vn -0.0000 -0.2169 -0.9762
vn -0.0000 0.1624 0.9867
vn -0.9866 0.1634 -0.0000
vn -0.0000 0.2169 0.9762
vn -0.9784 0.2066 -0.0000
vn -1.0000 -0.0000 -0.0000
vn -0.0000 -0.0000 1.0000
vn -0.1961 0.9806 -0.0000
vn -0.9487 0.3162 -0.0000
vn -0.9866 -0.1634 -0.0000
vn -0.9784 -0.2066 -0.0000
vn 0.9866 0.1634 -0.0000
vn 0.9784 0.2066 -0.0000
vn -0.0000 -0.1624 0.9867
vn -0.0000 0.9806 0.1961
vn -0.0000 0.3162 0.9487
vn -0.0000 -0.2169 0.9762
vn -0.0000 0.1624 -0.9867
vn -0.0000 0.2169 -0.9762
vt 0.387500 0.975000
vt 0.625000 0.975000
vt 0.625000 1.000000
vt 0.387500 1.000000
vt 0.625000 0.025000
vt 0.625000 0.000000
vt 0.850000 0.725000
vt 0.875000 0.725000
vt 0.875000 0.750000
vt 0.850000 0.750000
vt 0.625000 0.025000
vt 0.625000 0.875000
vt 0.150000 0.725000
vt 0.250000 0.725000
vt 0.250000 0.750000
vt 0.150000 0.750000
vt 0.387500 0.000000
vt 0.387500 0.025000
vt 0.625000 0.125000
vt 0.850000 0.625000
vt 0.875000 0.625000
vt 0.750000 0.625000
vt 0.750000 0.725000
vt 0.125000 0.625000
vt 0.150000 0.625000
vt 0.125000 0.725000
vt 0.125000 0.750000
vt 0.750000 0.750000
vt 0.000000 0.000000
vt 0.375000 0.000000
vt 0.375000 0.025000
vt 0.375000 0.975000
vt 0.375000 1.000000
s 0
usemtl LanternMaterial
f 38/1/1 24/2/1 2/3/1 36/4/1
f 19/5/2 3/6/2 4/6/2 20/5/2
f 18/5/3 2/6/3 3/6/3 19/5/3
f 32/7/4 21/8/4 5/9/4 27/10/4
f 20/5/5 4/6/5 5/6/5 21/11/5
f 25/2/6 13/12/6 14/12/6 26/2/6
f 26/2/7 14/12/7 15/12/7 27/2/7
f 24/2/8 12/12/8 13/12/8 25/2/8
f 31/13/9 23/14/9 11/15/9 29/16/9
f 36/17/10 2/6/10 18/5/10 37/18/10
f 9/19/5 20/5/5 21/11/5 10/19/5
f 30/20/4 10/21/4 21/8/4 32/7/4
f 7/19/3 18/5/3 19/5/3 8/19/3
f 8/19/2 19/5/2 20/5/2 9/19/2
f 16/22/4 30/20/4 32/7/4 22/23/4
f 6/24/9 28/25/9 31/13/9 17/26/9
f 17/26/9 31/13/9 29/16/9 1/27/9
f 2/3/8 24/2/8 25/2/8 3/3/8
f 4/3/7 26/2/7 27/2/7 5/3/7
f 3/3/6 25/2/6 26/2/6 4/3/6
f 22/23/4 32/7/4 27/10/4 15/28/4
f 12/12/9 24/2/9 34/29/9 35/29/9
f 7/19/9 33/29/9 34/29/9 18/5/9
f 1/30/11 36/17/11 37/18/11 17/31/11
f 29/32/12 38/1/12 36/4/12 1/33/12
f 17/31/11 37/18/11 41/18/11 6/31/11
f 38/1/12 29/32/12 11/32/12 42/1/12
f 39/29/4 43/29/4 38/1/4 42/1/4
f 41/18/4 37/18/4 43/29/4 40/29/4
f 34/29/13 43/29/13 37/18/13 18/5/13
f 34/29/14 24/2/14 38/1/14 43/29/14
f 39/29/15 23/29/15 31/29/15 43/29/15
f 28/29/16 40/29/16 43/29/16 31/29/16
f 44/29/9 45/29/9 46/29/9 47/29/9
f 34/29/17 33/29/17 45/29/17 44/29/17
f 35/29/18 34/29/18 44/29/18 47/29/18
f 76/1/1 74/4/1 49/3/1 63/2/1
f 60/5/19 61/5/19 51/6/19 50/6/19
f 59/5/17 60/5/17 50/6/17 49/6/17
f 71/7/4 66/10/4 52/9/4 62/8/4
f 61/5/20 62/11/20 52/6/20 51/6/20
f 64/2/6 65/2/6 14/12/6 13/12/6
f 65/2/7 66/2/7 15/12/7 14/12/7
f 63/2/8 64/2/8 13/12/8 12/12/8
f 70/13/9 68/16/9 11/15/9 23/14/9
f 74/17/21 75/18/21 59/5/21 49/6/21
f 56/19/20 57/19/20 62/11/20 61/5/20
f 69/20/4 71/7/4 62/8/4 57/21/4
f 54/19/17 55/19/17 60/5/17 59/5/17
f 55/19/19 56/19/19 61/5/19 60/5/19
f 16/22/4 22/23/4 71/7/4 69/20/4
f 53/24/9 58/26/9 70/13/9 67/25/9
f 58/26/9 48/27/9 68/16/9 70/13/9
f 49/3/8 50/3/8 64/2/8 63/2/8
f 51/3/7 52/3/7 66/2/7 65/2/7
f 50/3/6 51/3/6 65/2/6 64/2/6
f 22/23/4 15/28/4 66/10/4 71/7/4
f 12/12/9 35/29/9 73/29/9 63/2/9
f 54/19/9 59/5/9 73/29/9 72/29/9
f 48/30/22 58/31/22 75/18/22 74/17/22
f 68/32/12 48/33/12 74/4/12 76/1/12
f 58/31/22 53/31/22 78/18/22 75/18/22
f 76/1/12 42/1/12 11/32/12 68/32/12
f 39/29/4 42/1/4 76/1/4 79/29/4
f 78/18/4 77/29/4 79/29/4 75/18/4
f 73/29/13 59/5/13 75/18/13 79/29/13
f 73/29/23 79/29/23 76/1/23 63/2/23
f 39/29/15 79/29/15 70/29/15 23/29/15
f 67/29/24 70/29/24 79/29/24 77/29/24
f 80/29/9 47/29/9 46/29/9 81/29/9
f 73/29/3 80/29/3 81/29/3 72/29/3
f 35/29/18 47/29/18 80/29/18 73/29/18
f 110/1/25 108/4/25 83/3/25 99/2/25
f 94/5/2 95/5/2 85/6/2 84/6/2
f 93/5/3 94/5/3 84/6/3 83/6/3
f 105/7/4 102/10/4 86/9/4 96/8/4
f 95/5/5 96/11/5 86/6/5 85/6/5
f 100/2/26 101/2/26 90/12/26 89/12/26
f 101/2/27 102/2/27 91/12/27 90/12/27
f 99/2/18 100/2/18 89/12/18 88/12/18
f 104/13/9 103/16/9 87/15/9 98/14/9
f 108/17/10 109/18/10 93/5/10 83/6/10
f 9/19/5 10/19/5 96/11/5 95/5/5
f 30/20/4 105/7/4 96/8/4 10/21/4
f 7/19/3 8/19/3 94/5/3 93/5/3
f 8/19/2 9/19/2 95/5/2 94/5/2
f 16/22/4 97/23/4 105/7/4 30/20/4
f 6/24/9 92/26/9 104/13/9 28/25/9
f 92/26/9 82/27/9 103/16/9 104/13/9
f 83/3/18 84/3/18 100/2/18 99/2/18
f 85/3/27 86/3/27 102/2/27 101/2/27
f 84/3/26 85/3/26 101/2/26 100/2/26
f 97/23/4 91/28/4 102/10/4 105/7/4
f 88/12/9 107/29/9 106/29/9 99/2/9
f 7/19/9 93/5/9 106/29/9 33/29/9
f 82/30/11 92/31/11 109/18/11 108/17/11
f 103/32/28 82/33/28 108/4/28 110/1/28
f 92/31/11 6/31/11 41/18/11 109/18/11
f 110/1/28 112/1/28 87/32/28 103/32/28
f 111/29/4 112/1/4 110/1/4 113/29/4
f 41/18/4 40/29/4 113/29/4 109/18/4
f 106/29/29 93/5/29 109/18/29 113/29/29
f 106/29/14 113/29/14 110/1/14 99/2/14
f 111/29/30 113/29/30 104/29/30 98/29/30
f 28/29/16 104/29/16 113/29/16 40/29/16
f 114/29/9 115/29/9 46/29/9 45/29/9
f 106/29/17 114/29/17 45/29/17 33/29/17
f 107/29/8 115/29/8 114/29/8 106/29/8
f 136/1/25 126/2/25 117/3/25 134/4/25
f 123/5/19 118/6/19 119/6/19 124/5/19
f 122/5/17 117/6/17 118/6/17 123/5/17
f 132/7/4 125/8/4 120/9/4 129/10/4
f 124/5/20 119/6/20 120/6/20 125/11/20
f 127/2/26 89/12/26 90/12/26 128/2/26
f 128/2/27 90/12/27 91/12/27 129/2/27
f 126/2/18 88/12/18 89/12/18 127/2/18
f 131/13/9 98/14/9 87/15/9 130/16/9
f 134/17/21 117/6/21 122/5/21 135/18/21
f 56/19/20 124/5/20 125/11/20 57/19/20
f 69/20/4 57/21/4 125/8/4 132/7/4
f 54/19/17 122/5/17 123/5/17 55/19/17
f 55/19/19 123/5/19 124/5/19 56/19/19
f 16/22/4 69/20/4 132/7/4 97/23/4
f 53/24/9 67/25/9 131/13/9 121/26/9
f 121/26/9 131/13/9 130/16/9 116/27/9
f 117/3/18 126/2/18 127/2/18 118/3/18
f 119/3/27 128/2/27 129/2/27 120/3/27
f 118/3/26 127/2/26 128/2/26 119/3/26
f 97/23/4 132/7/4 129/10/4 91/28/4
f 88/12/9 126/2/9 133/29/9 107/29/9
f 54/19/9 72/29/9 133/29/9 122/5/9
f 116/30/22 134/17/22 135/18/22 121/31/22
f 130/32/28 136/1/28 134/4/28 116/33/28
f 121/31/22 135/18/22 78/18/22 53/31/22
f 136/1/28 130/32/28 87/32/28 112/1/28
f 111/29/4 137/29/4 136/1/4 112/1/4
f 78/18/4 135/18/4 137/29/4 77/29/4
f 133/29/29 137/29/29 135/18/29 122/5/29
f 133/29/23 126/2/23 136/1/23 137/29/23
f 111/29/30 98/29/30 131/29/30 137/29/30
f 67/29/24 77/29/24 137/29/24 131/29/24
f 138/29/9 81/29/9 46/29/9 115/29/9
f 133/29/3 72/29/3 81/29/3 138/29/3
f 107/29/8 133/29/8 138/29/8 115/29/8
o LanternTop
v 0.014351 0.370000 0.034645
v 0.012916 0.388750 0.031181
v -0.014351 0.370000 0.034645
v -0.012916 0.388750 0.031181
v -0.034645 0.370000 0.014351
v -0.031181 0.388750 0.012916
v -0.034645 0.370000 -0.014351
v -0.031181 0.388750 -0.012916
v -0.014351 0.370000 -0.034645
v -0.012916 0.388750 -0.031181
v 0.014351 0.370000 -0.034645
v 0.012916 0.388750 -0.031181
v 0.034645 0.370000 -0.014351
v 0.031181 0.388750 -0.012916
v 0.034645 0.370000 0.014351
v 0.031181 0.388750 0.012916
v 0.006458 0.401250 0.015590
v -0.006458 0.401250 0.015590
v -0.015590 0.401250 0.006458
v -0.015590 0.401250 -0.006458
v -0.006458 0.401250 -0.015590
v 0.006458 0.401250 -0.015590
v 0.015590 0.401250 -0.006458
v 0.015590 0.401250 0.006458
v 0.006458 0.401250 0.006458
v 0.006458 0.401250 -0.006458
v -0.006458 0.401250 0.006458
v -0.006458 0.401250 -0.006458
vn -0.0000 0.1817 0.9834
vn -0.6953 0.1817 0.6953
vn -0.9834 0.1817 -0.0000
vn -0.6953 0.1817 -0.6953
vn -0.0000 0.1817 -0.9834
vn 0.6953 0.1817 -0.6953
vn 0.6255 0.7802 -0.0000
vn 0.9834 0.1817 -0.0000
vn 0.6953 0.1817 0.6953
vn -0.4423 0.7802 0.4423
vn -0.0000 0.7802 -0.6255
vn 0.4423 0.7802 0.4423
vn -0.0000 0.7802 0.6255
vn -0.6255 0.7802 -0.0000
vn 0.4423 0.7802 -0.4423
vn -0.4423 0.7802 -0.4423
vn -0.0000 1.0000 -0.0000
vt 1.000000 0.500000
vt 1.000000 1.000000
vt 0.875000 1.000000
vt 0.875000 0.500000
vt 0.750000 1.000000
vt 0.750000 0.500000
vt 0.625000 1.000000
vt 0.625000 0.500000
vt 0.500000 1.000000
vt 0.500000 0.500000
vt 0.375000 1.000000
vt 0.375000 0.500000
vt 0.250000 1.000000
vt 0.250000 0.500000
vt 0.125000 1.000000
vt 0.125000 0.500000
vt 0.000000 1.000000
vt 0.000000 0.500000
vt 0.000000 0.000000
s 0
usemtl LanternMaterial
f 139/34/31 140/35/31 142/36/31 141/37/31
f 141/37/32 142/36/32 144/38/32 143/39/32
f 143/39/33 144/38/33 146/40/33 145/41/33
f 145/41/34 146/40/34 148/42/34 147/43/34
f 147/43/35 148/42/35 150/44/35 149/45/35
f 149/45/36 150/44/36 152/46/36 151/47/36
f 154/48/37 152/46/37 161/46/37 162/48/37
f 151/47/38 152/46/38 154/48/38 153/49/38
f 153/49/39 154/48/39 140/50/39 139/51/39
f 144/38/40 142/36/40 156/36/40 157/38/40
f 150/44/41 148/42/41 159/42/41 160/44/41
f 140/50/42 154/48/42 162/48/42 155/50/42
f 142/36/43 140/35/43 155/35/43 156/36/43
f 146/40/44 144/38/44 157/38/44 158/40/44
f 152/46/45 150/44/45 160/44/45 161/46/45
f 148/42/46 146/40/46 158/40/46 159/42/46
f 160/44/47 164/52/47 161/46/47
f 159/42/47 166/52/47 164/52/47 160/44/47
f 159/42/47 158/40/47 166/52/47
f 158/40/47 157/38/47 165/52/47 166/52/47
f 156/36/47 165/52/47 157/38/47
f 156/36/47 155/35/47 163/52/47 165/52/47
f 162/48/47 163/52/47 155/35/47
f 161/46/47 164/52/47 163/52/47 162/48/47
f 164/52/47 166/52/47 165/52/47 163/52/47
o HangingRing
v -0.015625 0.418250 0.000000
v -0.010937 0.418250 -0.002706
v -0.010937 0.418250 0.002706
v -0.011049 0.429299 0.000000
v -0.007734 0.425984 -0.002706
v -0.007734 0.425984 0.002706
v -0.000000 0.433875 0.000000
v -0.000000 0.429188 -0.002706
v -0.000000 0.429188 0.002706
v 0.011049 0.429299 0.000000
v 0.007734 0.425984 -0.002706
v 0.007734 0.425984 0.002706
v 0.015625 0.418250 0.000000
v 0.010937 0.418250 -0.002706
v 0.010937 0.418250 0.002706
v 0.011049 0.407201 -0.000000
v 0.007734 0.410516 -0.002706
v 0.007734 0.410516 0.002706
v -0.000000 0.402625 -0.000000
v -0.000000 0.407313 -0.002706
v -0.000000 0.407313 0.002706
v -0.011049 0.407201 -0.000000
v -0.007734 0.410516 -0.002706
v -0.007734 0.410516 0.002706
vn -0.4896 0.2028 -0.8480
vn 0.9239 -0.3827 -0.0000
vn -0.4896 0.2028 0.8480
vn -0.2028 0.4896 -0.8480
vn 0.3827 -0.9239 -0.0000
vn -0.2028 0.4896 0.8480
vn 0.2028 0.4896 -0.8480
vn -0.3827 -0.9239 -0.0000
vn 0.2028 0.4896 0.8480
vn 0.4896 0.2028 -0.8480
vn -0.9239 -0.3827 -0.0000
vn 0.4896 0.2028 0.8480
vn 0.4896 -0.2028 -0.8480
vn -0.9239 0.3827 -0.0000
vn 0.4896 -0.2028 0.8480
vn 0.2028 -0.4896 -0.8480
vn -0.3827 0.9239 -0.0000
vn 0.2028 -0.4896 0.8480
vn -0.2028 -0.4896 -0.8480
vn 0.3827 0.9239 -0.0000
vn -0.2028 -0.4896 0.8480
vn -0.4896 -0.2028 -0.8480
vn 0.9239 0.3827 -0.0000
vn -0.4896 -0.2028 0.8480
vt 0.500000 0.666667
vt 0.625000 0.666667
vt 0.625000 1.000000
vt 0.500000 1.000000
vt 0.500000 0.000000
vt 0.625000 0.000000
vt 0.625000 0.333333
vt 0.500000 0.333333
vt 0.750000 0.666667
vt 0.750000 1.000000
vt 0.750000 0.000000
vt 0.750000 0.333333
vt 0.875000 0.666667
vt 0.875000 1.000000
vt 0.875000 0.000000
vt 0.875000 0.333333
vt 1.000000 0.666667
vt 1.000000 1.000000
vt 1.000000 0.000000
vt 1.000000 0.333333
vt 0.000000 0.666667
vt 0.125000 0.666667
vt 0.125000 1.000000
vt 0.000000 1.000000
vt 0.000000 0.000000
vt 0.125000 0.000000
vt 0.125000 0.333333
vt 0.000000 0.333333
vt 0.250000 0.666667
vt 0.250000 1.000000
vt 0.250000 0.000000
vt 0.250000 0.333333
vt 0.375000 0.666667
vt 0.375000 1.000000
vt 0.375000 0.000000
vt 0.375000 0.333333
s 0
usemtl LanternMaterial
f 167/53/48 170/54/48 171/55/48 168/56/48
f 168/57/49 171/58/49 172/59/49 169/60/49
f 169/60/50 172/59/50 170/54/50 167/53/50
f 170/54/51 173/61/51 174/62/51 171/55/51
f 171/58/52 174/63/52 175/64/52 172/59/52
f 172/59/53 175/64/53 173/61/53 170/54/53
f 173/61/54 176/65/54 177/66/54 174/62/54
f 174/63/55 177/67/55 178/68/55 175/64/55
f 175/64/56 178/68/56 176/65/56 173/61/56
f 176/65/57 179/69/57 180/70/57 177/66/57
f 177/67/58 180/71/58 181/72/58 178/68/58
f 178/68/59 181/72/59 179/69/59 176/65/59
f 179/73/60 182/74/60 183/75/60 180/76/60
f 180/77/61 183/78/61 184/79/61 181/80/61
f 181/80/62 184/79/62 182/74/62 179/73/62
f 182/74/63 185/81/63 186/82/63 183/75/63
f 183/78/64 186/83/64 187/84/64 184/79/64
f 184/79/65 187/84/65 185/81/65 182/74/65
f 185/81/66 188/85/66 189/86/66 186/82/66
f 186/83/67 189/87/67 190/88/67 187/84/67
f 187/84/68 190/88/68 188/85/68 185/81/68
f 188/85/69 167/53/69 168/56/69 189/86/69
f 189/87/70 168/57/70 169/60/70 190/88/70
f 190/88/71 169/60/71 167/53/71 188/85/71
o RingLoop
v 0.003125 0.401250 -0.004688
v 0.003125 0.401250 0.004688
v -0.003125 0.401250 -0.004688
v -0.003125 0.401250 0.004688
v 0.003125 0.410625 -0.004688
v 0.003125 0.413750 -0.001563
v 0.003125 0.413750 0.001562
v 0.003125 0.410625 0.004688
v -0.003125 0.413750 -0.001562
v -0.003125 0.410625 -0.004688
v -0.003125 0.410625 0.004688
v -0.003125 0.413750 0.001563
vn -0.0000 1.0000 -0.0000
vn -1.0000 -0.0000 -0.0000
vn 1.0000 -0.0000 -0.0000
vn -0.0000 -0.0000 1.0000
vn -0.0000 0.7071 0.7071
vn -0.0000 0.7071 -0.7071
vn -0.0000 -0.0000 -1.0000
vt 0.625000 0.583333
vt 0.875000 0.583333
vt 0.875000 0.666667
vt 0.625000 0.666667
vt 0.375000 0.500000
vt 0.562500 0.500000
vt 0.625000 0.666667
vt 0.562500 0.750000
vt 0.375000 0.750000
vt 0.375000 0.000000
vt 0.562500 0.000000
vt 0.625000 0.083333
vt 0.625000 0.166667
vt 0.562500 0.250000
vt 0.375000 0.250000
vt 0.625000 0.250000
vt 0.625000 0.500000
vt 0.625000 0.750000
vt 0.625000 1.000000
vt 0.562500 1.000000
vt 0.375000 1.000000
s 0
usemtl LanternMaterial
f 202/89/72 197/90/72 196/91/72 199/92/72
f 194/93/73 201/94/73 202/89/73 199/95/73 200/96/73 193/97/73
f 191/98/74 195/99/74 196/100/74 197/101/74 198/102/74 192/103/74
f 192/103/75 198/102/75 201/94/75 194/93/75
f 197/104/76 202/105/76 201/94/76 198/102/76
f 199/106/77 196/107/77 195/108/77 200/96/77
f 193/97/78 200/96/78 195/108/78 191/109/78
o ConnectingPole
v 0.000000 0.425875 0.012500
v 0.000000 0.429000 -0.187500
v -0.006250 0.422750 0.012500
v -0.006250 0.422750 -0.187500
v 0.000000 0.416500 0.012500
v 0.000000 0.416500 -0.187500
v 0.006250 0.422750 0.012500
v 0.006250 0.422750 -0.187500
v 0.000000 0.429000 0.003125
v -0.006250 0.422750 0.003125
v 0.000000 0.416500 0.003125
v 0.006250 0.422750 0.003125
v 0.000000 0.432125 0.012500
v -0.006250 0.425875 0.012500
v 0.006250 0.425875 0.012500
v 0.000000 0.432125 0.006250
v -0.006250 0.425875 0.006250
v 0.006250 0.425875 0.006250
vn -0.7071 0.7071 -0.0000
vn -0.7071 -0.7071 -0.0000
vn -0.0000 -0.0000 -1.0000
vn 0.7071 -0.7071 -0.0000
vn 0.7071 0.7071 -0.0000
vn -0.0000 -0.0000 1.0000
vn 1.0000 -0.0000 -0.0000
vn 0.5774 0.5774 -0.5774
vn -1.0000 -0.0000 -0.0000
vn -0.5774 0.5774 -0.5774
vt 1.000000 0.525000
vt 1.000000 1.000000
vt 0.750000 1.000000
vt 0.750000 0.525000
vt 0.500000 1.000000
vt 0.500000 0.525000
vt 0.490000 0.250000
vt 0.250000 0.490000
vt 0.010000 0.250000
vt 0.250000 0.010000
vt 0.250000 1.000000
vt 0.250000 0.525000
vt 0.000000 1.000000
vt 0.000000 0.525000
vt 0.750000 0.490000
vt 0.990000 0.250000
vt 0.750000 0.010000
vt 0.510000 0.250000
vt 0.250000 0.500000
vt 0.500000 0.500000
vt 0.750000 0.500000
vt 0.000000 0.500000
vt 1.000000 0.500000
s 0
usemtl LanternMaterial
f 211/110/79 204/111/79 206/112/79 212/113/79
f 212/113/80 206/112/80 208/114/80 213/115/80
f 206/116/81 204/117/81 210/118/81 208/119/81
f 213/115/82 208/114/82 210/120/82 214/121/82
f 214/121/83 210/120/83 204/122/83 211/123/83
f 203/124/84 205/125/84 207/126/84 209/127/84
f 209/128/85 214/121/85 220/121/85 217/128/85
f 207/129/82 213/115/82 214/121/82 209/128/82
f 205/130/80 212/113/80 213/115/80 207/129/80
f 205/125/84 203/124/84 215/124/84 216/125/84
f 217/128/83 220/121/83 218/123/83 215/131/83
f 215/132/79 218/110/79 219/113/79 216/130/79
f 214/121/86 211/123/86 218/123/86 220/121/86
f 212/113/87 205/130/87 216/130/87 219/113/87
f 203/124/84 209/127/84 217/127/84 215/124/84
f 211/110/88 212/113/88 219/113/88 218/110/88
o CandleHolder
v 0.000000 0.050000 0.000000
v -0.016982 0.037500 0.000000
v -0.016982 0.050000 0.000000
v 0.000000 0.037500 0.000000
v 0.000000 0.037500 0.016982
v 0.000000 0.050000 0.016982
v -0.016982 0.050000 0.008018
v -0.016982 0.037500 0.008018
v -0.008018 0.050000 0.016982
v -0.008018 0.037500 0.016982
v -0.063386 0.022979 0.054422
v -0.063386 0.010479 0.054422
v -0.054422 0.022979 0.063386
v -0.054422 0.010479 0.063386
v 0.016982 0.037500 0.000000
v 0.016982 0.050000 0.000000
v 0.016982 0.050000 0.008018
v 0.016982 0.037500 0.008018
v 0.008018 0.050000 0.016982
v 0.008018 0.037500 0.016982
v 0.063386 0.022979 0.054422
v 0.063386 0.010479 0.054422
v 0.054422 0.022979 0.063386
v 0.054422 0.010479 0.063386
v 0.000000 0.037500 -0.016982
v 0.000000 0.050000 -0.016982
v -0.016982 0.050000 -0.008018
v -0.016982 0.037500 -0.008018
v -0.008018 0.050000 -0.016982
v -0.008018 0.037500 -0.016982
v -0.063386 0.022979 -0.054422
v -0.063386 0.010479 -0.054422
v -0.054422 0.022979 -0.063386
v -0.054422 0.010479 -0.063386
v 0.016982 0.050000 -0.008018
v 0.016982 0.037500 -0.008018
v 0.008018 0.050000 -0.016982
v 0.008018 0.037500 -0.016982
v 0.063386 0.022979 -0.054422
v 0.063386 0.010479 -0.054422
v 0.054422 0.022979 -0.063386
v 0.054422 0.010479 -0.063386
vn -0.0000 1.0000 -0.0000
vn -0.0000 -0.0000 1.0000
vn -1.0000 -0.0000 -0.0000
vn -0.0000 -1.0000 -0.0000
vn -0.7071 -0.0000 -0.7071
vn 0.2692 -0.9247 -0.2692
vn -0.2692 0.9247 0.2692
vn 0.7071 -0.0000 0.7071
vn 1.0000 -0.0000 -0.0000
vn 0.7071 -0.0000 -0.7071
vn -0.2692 -0.9247 -0.2692
vn 0.2692 0.9247 0.2692
vn -0.7071 -0.0000 0.7071
vn -0.0000 -0.0000 -1.0000
vn 0.2692 -0.9247 0.2692
vn -0.2692 0.9247 -0.2692
vn -0.2692 -0.9247 0.2692
vn 0.2692 0.9247 -0.2692
vt 0.000000 0.000000
s 0
usemtl LanternMaterial
f 223/133/89 227/133/89 221/133/89
f 226/133/89 221/133/89 229/133/89
f 229/133/90 230/133/90 225/133/90 226/133/90
f 228/133/91 227/133/91 223/133/91 222/133/91
f 227/133/89 229/133/89 221/133/89
f 228/133/92 224/133/92 230/133/92
f 227/133/93 228/133/93 232/133/93 231/133/93
f 228/133/94 230/133/94 234/133/94 232/133/94
f 229/133/95 227/133/95 231/133/95 233/133/95
f 230/133/96 229/133/96 233/133/96 234/133/96
f 236/133/89 221/133/89 237/133/89
f 226/133/89 239/133/89 221/133/89
f 239/133/90 226/133/90 225/133/90 240/133/90
f 238/133/97 235/133/97 236/133/97 237/133/97
f 237/133/89 221/133/89 239/133/89
f 238/133/92 240/133/92 224/133/92
f 237/133/98 241/133/98 242/133/98 238/133/98
f 238/133/99 242/133/99 244/133/99 240/133/99
f 239/133/100 243/133/100 241/133/100 237/133/100
f 240/133/101 244/133/101 243/133/101 239/133/101
f 223/133/89 221/133/89 247/133/89
f 246/133/89 249/133/89 221/133/89
f 249/133/102 246/133/102 245/133/102 250/133/102
f 248/133/91 222/133/91 223/133/91 247/133/91
f 247/133/89 221/133/89 249/133/89
f 248/133/92 250/133/92 224/133/92
f 247/133/101 251/133/101 252/133/101 248/133/101
f 248/133/103 252/133/103 254/133/103 250/133/103
f 249/133/104 253/133/104 251/133/104 247/133/104
f 250/133/98 254/133/98 253/133/98 249/133/98
f 236/133/89 255/133/89 221/133/89
f 246/133/89 221/133/89 257/133/89
f 257/133/102 258/133/102 245/133/102 246/133/102
f 256/133/97 255/133/97 236/133/97 235/133/97
f 255/133/89 257/133/89 221/133/89
f 256/133/92 224/133/92 258/133/92
f 255/133/96 256/133/96 260/133/96 259/133/96
f 256/133/105 258/133/105 262/133/105 260/133/105
f 257/133/106 255/133/106 259/133/106 261/133/106
f 258/133/93 257/133/93 261/133/93 262/133/93
